# xmcd
#
# Track frame offsets:
# 150
# 17557
# 33394
# 56232
# 77089
# 98795
# 116082
# 135428
# 153921
# 171444
# 192282
# 215537
#
# Disc length: 3114 seconds
#
#
# Revision: 0
# Processed by: cddbd v1.5.1PL2 Copyright (c) Steve Scherf et al.
# Submitted via: FreeRIP 2.941 
#
DISCID=9f0c280c
DTITLE=JP LeBlanc - Le blues m'emporte
DYEAR=2006
DGENRE=Blues
TTITLE0=Le blues m'emporte
TTITLE1=C'est quoi encore son nom
TTITLE2=Mes amis d'ici
TTITLE3=Le diable est lache
TTITLE4=C'est trop tard (Le blues du Dr Faustus)
TTITLE5=C'est la derniere fois
TTITLE6=En parlant du loup
TTITLE7=Danser chanter en Louisiane
TTITLE8=Cinq mois
TTITLE9=Jalouse de ma guitare
TTITLE10=Oh Darling
TTITLE11=Viens chez nous
EXTD=As heard on\nBluesfestRadio.cm
EXTT0=
EXTT1=
EXTT2=
EXTT3=
EXTT4=
EXTT5=
EXTT6=
EXTT7=
EXTT8=
EXTT9=
EXTT10=
EXTT11=
PLAYORDER=
